<svg id="Grupo_1775" data-name="Grupo 1775" xmlns="http://www.w3.org/2000/svg" width="92.738" height="45.257" viewBox="0 0 92.738 45.257">
  <g id="Grupo_1775-2" data-name="Grupo 1775" transform="translate(0 33.775)">
    <path id="Trazado_8455" data-name="Trazado 8455" d="M1025.744,622h-2.513l-1.947-7.621-1.93,7.621h-2.513l-3.178-11.1h2.646l1.947,8.021,2.113-8.021h1.847l2.1,8.021,1.93-8.021h2.663Z" transform="translate(-1013.663 -610.715)" fill="#1f5c6f"/>
    <path id="Trazado_8456" data-name="Trazado 8456" d="M1118.393,622h-2.363V610.9h2.363Z" transform="translate(-1099.672 -610.715)" fill="#1f5c6f"/>
    <path id="Trazado_8457" data-name="Trazado 8457" d="M1144.57,621.323a6.273,6.273,0,0,1-4.693-1.764l1.281-1.8a4.686,4.686,0,0,0,3.528,1.5,2.44,2.44,0,0,0,1.423-.358,1.047,1.047,0,0,0,.507-.874.873.873,0,0,0-.474-.749,3.366,3.366,0,0,0-1.181-.433,15.051,15.051,0,0,1-1.539-.383,12.725,12.725,0,0,1-1.539-.566,2.812,2.812,0,0,1-1.656-2.663,3.032,3.032,0,0,1,1.148-2.4,4.576,4.576,0,0,1,3.062-.974,6.137,6.137,0,0,1,4.327,1.547l-1.315,1.731a4.581,4.581,0,0,0-3.228-1.215,1.965,1.965,0,0,0-1.165.3.952.952,0,0,0-.416.815.789.789,0,0,0,.474.674,3.737,3.737,0,0,0,1.182.408,13.634,13.634,0,0,1,1.531.391,13.044,13.044,0,0,1,1.531.583,2.859,2.859,0,0,1,1.656,2.671,3.24,3.24,0,0,1-1.14,2.579A4.924,4.924,0,0,1,1144.57,621.323Z" transform="translate(-1119.708 -609.841)" fill="#1f5c6f"/>
    <path id="Trazado_8458" data-name="Trazado 8458" d="M1214.9,622h-7.854V610.9h7.854v2.08h-5.491v2.346h5.375v2.08h-5.375v2.513h5.491Z" transform="translate(-1176.142 -610.715)" fill="#1f5c6f"/>
    <path id="Trazado_8459" data-name="Trazado 8459" d="M1269.111,622h-2.38v-9.019h-3.245V610.9h8.853v2.08h-3.228Z" transform="translate(-1223.565 -610.715)" fill="#1f5c6f"/>
    <path id="Trazado_8460" data-name="Trazado 8460" d="M1337.349,622h-2.712l-2.18-3.944h-1.731V622h-2.363V610.9h5.192a3.7,3.7,0,0,1,2.721,1,3.475,3.475,0,0,1,1.007,2.579,3.343,3.343,0,0,1-.707,2.213,3.106,3.106,0,0,1-1.722,1.082Zm-4.144-6.024a1.753,1.753,0,0,0,1.2-.408,1.508,1.508,0,0,0,0-2.18,1.754,1.754,0,0,0-1.2-.408h-2.48v3Z" transform="translate(-1278.075 -610.715)" fill="#1f5c6f"/>
    <path id="Trazado_8461" data-name="Trazado 8461" d="M1399.46,622h-2.7l-.683-1.88h-4.759l-.7,1.88h-2.7l4.293-11.1h2.962Zm-4.027-3.96-1.731-4.776-1.731,4.776Z" transform="translate(-1328.122 -610.715)" fill="#1f5c6f"/>
    <path id="Trazado_8462" data-name="Trazado 8462" d="M1465.586,621.235a5.881,5.881,0,0,1-4.219-1.606,5.907,5.907,0,0,1,0-8.27,5.882,5.882,0,0,1,4.219-1.606,5,5,0,0,1,4.643,2.713l-2.03,1a3.06,3.06,0,0,0-1.073-1.157,2.781,2.781,0,0,0-1.539-.457,3.3,3.3,0,0,0-2.5,1.032,3.967,3.967,0,0,0,0,5.225,3.3,3.3,0,0,0,2.5,1.032,2.817,2.817,0,0,0,1.539-.449,2.961,2.961,0,0,0,1.073-1.165l2.03.982A5.061,5.061,0,0,1,1465.586,621.235Z" transform="translate(-1388.407 -609.753)" fill="#1f5c6f"/>
    <path id="Trazado_8463" data-name="Trazado 8463" d="M1544.055,622h-2.912l-3.361-4.443-.865,1.032V622h-2.363V610.9h2.363v4.959l3.927-4.959h2.912l-4.41,5.209Z" transform="translate(-1451.317 -610.715)" fill="#1f5c6f"/>
  </g>
  <g id="Grupo_1777" data-name="Grupo 1777" transform="translate(26.501 0)">
    <g id="Grupo_1776" data-name="Grupo 1776">
      <path id="Trazado_8464" data-name="Trazado 8464" d="M1305.213,398.392a5.23,5.23,0,1,0,5.23,5.23A5.23,5.23,0,0,0,1305.213,398.392Zm0,7.939a2.709,2.709,0,1,1,2.709-2.709A2.709,2.709,0,0,1,1305.213,406.331Z" transform="translate(-1280.731 -398.392)" fill="#1f5c6f"/>
      <path id="Trazado_8465" data-name="Trazado 8465" d="M1217.24,398.392h0a2,2,0,0,0-1.729,1l-11.524,19.96-2.308-4-2.307-4-6.82-11.812c-.014-.025-.03-.049-.045-.073s-.028-.055-.044-.083h0a2,2,0,0,0-1.729-1H1181.5a2,2,0,0,0-1.729,3h0c.013.023.027.044.041.066s.031.059.047.089l13.154,22.78.011.021v0a2,2,0,0,0,3.458,0l2.884-5,2.884,5a2,2,0,0,0,3.458,0v0l.011-.021,13.244-22.936A2,2,0,0,0,1217.24,398.392Zm-22.483,20.958-9.794-16.964h4.615l7.487,12.968Z" transform="translate(-1179.503 -398.392)" fill="#1f5c6f"/>
    </g>
  </g>
</svg>
